<?xml version="1.0" encoding="UTF-8"?>
<svg id="Layer_1" data-name="Layer 1" xmlns="http://www.w3.org/2000/svg" viewBox="0 0 207.98 28.35">
  <defs>
    <style>
      .cls-1 {
        fill: #29003a;
      }
    </style>
  </defs>
  <path class="cls-1" d="M24.03,14.18c0,2.08-.33,3.97-.99,5.67-.66,1.7-1.59,3.16-2.79,4.37s-2.64,2.15-4.31,2.82c-1.68.66-3.53,1-5.57,1H0V.31h10.37c2.04,0,3.9.33,5.57,1,1.68.66,3.11,1.61,4.31,2.82s2.13,2.68,2.79,4.38c.66,1.7.99,3.59.99,5.67ZM20.18,14.18c0-1.7-.23-3.22-.7-4.57s-1.12-2.48-1.97-3.41c-.85-.93-1.88-1.64-3.1-2.13s-2.56-.73-4.04-.73H3.77v21.65h6.6c1.48,0,2.83-.24,4.04-.73s2.24-1.2,3.1-2.12c.85-.92,1.51-2.05,1.97-3.39s.7-2.86.7-4.57Z"/>
  <path class="cls-1" d="M53.96.31v3.06h-13.31v9.21h10.78v2.94h-10.78v9.46h13.31v3.06h-17.08V.31h17.08Z"/>
  <path class="cls-1" d="M86.64,22.31c.21,0,.39.08.56.25l1.47,1.61c-1.13,1.32-2.51,2.34-4.13,3.08-1.62.74-3.57,1.1-5.85,1.1-2,0-3.81-.35-5.44-1.04s-3.01-1.66-4.16-2.9c-1.15-1.25-2.04-2.74-2.67-4.48s-.95-3.66-.95-5.75.34-4.01,1.02-5.75c.68-1.74,1.63-3.24,2.85-4.49,1.23-1.25,2.69-2.22,4.4-2.91,1.71-.69,3.6-1.04,5.66-1.04s3.8.32,5.27.95,2.79,1.49,3.94,2.57l-1.22,1.72c-.09.13-.19.24-.31.32-.12.08-.28.13-.5.13-.17,0-.34-.06-.53-.18-.19-.12-.41-.27-.67-.45-.26-.18-.56-.37-.91-.58-.35-.21-.76-.4-1.24-.58-.48-.18-1.03-.33-1.66-.45-.63-.12-1.36-.18-2.19-.18-1.48,0-2.84.25-4.07.76-1.23.51-2.29,1.23-3.18,2.18s-1.58,2.09-2.08,3.44-.74,2.87-.74,4.55.25,3.27.74,4.62,1.17,2.5,2.03,3.43c.86.94,1.87,1.65,3.05,2.14,1.17.49,2.44.74,3.79.74.83,0,1.57-.05,2.23-.14.66-.1,1.27-.25,1.83-.46.56-.21,1.08-.47,1.57-.78s.97-.69,1.46-1.13c.22-.19.43-.29.64-.29Z"/>
  <path class="cls-1" d="M127.1,14.18c0,2.08-.33,3.98-.99,5.72-.66,1.74-1.59,3.23-2.79,4.48-1.2,1.25-2.64,2.22-4.32,2.91-1.68.69-3.54,1.04-5.58,1.04s-3.9-.34-5.57-1.04c-1.68-.69-3.11-1.66-4.31-2.91-1.2-1.25-2.13-2.74-2.79-4.48-.66-1.73-.99-3.64-.99-5.72s.33-3.98.99-5.72c.66-1.74,1.59-3.23,2.79-4.49s2.64-2.23,4.31-2.93c1.68-.7,3.53-1.04,5.57-1.04s3.9.35,5.58,1.04c1.68.7,3.13,1.67,4.32,2.93,1.2,1.26,2.13,2.75,2.79,4.49s.99,3.64.99,5.72ZM123.25,14.18c0-1.7-.23-3.23-.7-4.59-.46-1.35-1.12-2.5-1.97-3.43s-1.88-1.65-3.1-2.16c-1.21-.5-2.57-.75-4.06-.75s-2.83.25-4.04.75c-1.21.5-2.25,1.22-3.11,2.16s-1.52,2.08-1.98,3.43c-.47,1.36-.7,2.88-.7,4.59s.23,3.23.7,4.58c.46,1.35,1.13,2.49,1.98,3.42.86.94,1.89,1.65,3.11,2.15s2.56.75,4.04.75,2.85-.25,4.06-.75,2.24-1.21,3.1-2.15c.85-.93,1.51-2.08,1.97-3.42.47-1.35.7-2.87.7-4.58Z"/>
  <path class="cls-1" d="M144.09,16.47v11.57h-3.73V.31h7.84c1.75,0,3.27.18,4.55.53,1.28.35,2.33.87,3.16,1.54.83.67,1.45,1.48,1.85,2.43.4.95.6,2.01.6,3.18,0,.98-.15,1.9-.46,2.75s-.76,1.62-1.34,2.29-1.3,1.25-2.15,1.73c-.85.48-1.8.84-2.87,1.08.46.27.88.66,1.24,1.18l8.09,11.01h-3.33c-.68,0-1.19-.26-1.51-.79l-7.2-9.91c-.22-.31-.46-.53-.72-.67s-.64-.2-1.16-.2h-2.84ZM144.09,13.74h3.93c1.1,0,2.06-.13,2.89-.4.83-.26,1.53-.64,2.09-1.12.56-.48.98-1.06,1.27-1.73s.43-1.41.43-2.23c0-1.65-.55-2.9-1.64-3.73s-2.71-1.26-4.87-1.26h-4.1v10.47Z"/>
  <path class="cls-1" d="M177.08,28.04h-3.75V.31h3.75v27.73Z"/>
  <path class="cls-1" d="M206.45,4.64c-.12.19-.24.34-.37.43-.13.1-.3.15-.5.15-.22,0-.47-.11-.76-.33-.29-.22-.66-.46-1.1-.73s-.98-.51-1.61-.73-1.38-.33-2.27-.33c-.84,0-1.58.11-2.23.34-.65.23-1.18.53-1.62.92-.43.39-.76.84-.98,1.36-.22.52-.33,1.09-.33,1.69,0,.77.19,1.42.57,1.93s.88.94,1.51,1.31,1.34.67,2.13.94c.79.26,1.61.54,2.44.82.83.28,1.64.6,2.44.96.79.35,1.5.8,2.13,1.34s1.13,1.21,1.51,1.99c.38.79.57,1.76.57,2.9,0,1.21-.21,2.35-.62,3.41-.41,1.06-1.02,1.99-1.81,2.78-.79.79-1.77,1.41-2.92,1.86s-2.47.68-3.94.68c-1.79,0-3.43-.33-4.91-.98-1.48-.65-2.74-1.53-3.78-2.64l1.08-1.78c.1-.14.23-.26.38-.36.15-.1.31-.14.49-.14.27,0,.58.14.93.44.35.29.78.61,1.31.96.52.35,1.15.67,1.9.96.74.29,1.65.43,2.72.43.89,0,1.68-.12,2.38-.37.7-.24,1.29-.59,1.77-1.04s.85-.98,1.11-1.6c.26-.62.39-1.31.39-2.07,0-.84-.19-1.53-.57-2.06-.38-.54-.88-.98-1.5-1.34-.62-.36-1.33-.67-2.12-.92-.79-.25-1.61-.51-2.44-.77-.83-.26-1.64-.57-2.44-.92s-1.5-.8-2.12-1.35c-.62-.56-1.12-1.25-1.5-2.08-.38-.83-.57-1.86-.57-3.09,0-.98.19-1.93.57-2.84.38-.92.93-1.73,1.65-2.44.72-.71,1.62-1.28,2.68-1.7,1.06-.43,2.29-.64,3.67-.64,1.55,0,2.96.25,4.24.73,1.28.49,2.39,1.2,3.35,2.13l-.91,1.78Z"/>
</svg>