<?xml version="1.0" encoding="UTF-8"?>
<svg id="Layer_1" data-name="Layer 1" xmlns="http://www.w3.org/2000/svg" viewBox="0 0 215.43 52.84">
  <defs>
    <style>
      .cls-1 {
        fill: #29003a;
      }
    </style>
  </defs>
  <path class="cls-1" d="M64.55,19.68c-1.58-1.68-3.46-2.98-5.66-3.89-2.2-.91-4.63-1.37-7.3-1.37s-5.05.46-7.25,1.38c-2.2.92-4.08,2.22-5.66,3.89-.32.34-.62.7-.91,1.07.58.69,1.1,1.44,1.57,2.24.41-.63.85-1.22,1.35-1.76,1.34-1.45,2.93-2.56,4.78-3.33,1.85-.77,3.89-1.15,6.12-1.15s4.33.38,6.19,1.15c1.86.77,3.45,1.88,4.77,3.33,1.32,1.45,2.34,3.22,3.07,5.31.73,2.09,1.09,4.44,1.09,7.06s-.36,5-1.09,7.08c-.73,2.08-1.75,3.85-3.07,5.3-1.32,1.45-2.91,2.56-4.77,3.32-1.86.76-3.92,1.14-6.19,1.14s-4.27-.38-6.12-1.14c-1.85-.76-3.44-1.87-4.78-3.32-.49-.53-.93-1.13-1.34-1.75-.47.81-.99,1.56-1.57,2.25.29.37.59.73.91,1.07,1.58,1.67,3.46,2.96,5.66,3.88,2.19.91,4.61,1.37,7.25,1.37s5.11-.46,7.3-1.37c2.19-.91,4.08-2.2,5.66-3.88,1.58-1.67,2.8-3.69,3.66-6.05.87-2.36,1.3-5,1.3-7.9s-.43-5.51-1.3-7.87c-.87-2.36-2.09-4.39-3.66-6.07Z"/>
  <path class="cls-1" d="M28.98,22.58c-.47-.8-.99-1.55-1.57-2.24-.25-.3-.49-.6-.76-.87-1.58-1.63-3.46-2.88-5.66-3.74-2.2-.87-4.63-1.3-7.3-1.3H0v37.57h13.7c2.67,0,5.11-.43,7.3-1.3,2.2-.87,4.08-2.12,5.66-3.74.27-.28.51-.58.76-.87.58-.7,1.11-1.45,1.57-2.25.51-.87.96-1.79,1.33-2.79.87-2.32,1.3-4.93,1.3-7.83s-.43-5.49-1.3-7.81c-.38-1.01-.83-1.93-1.34-2.81ZM27.72,40.23c-.08.22-.17.42-.26.63-.43,1.08-.94,2.06-1.55,2.95-.39.57-.8,1.12-1.26,1.62-1.32,1.42-2.91,2.5-4.77,3.24s-3.92,1.11-6.19,1.11H2.74V16.62h10.97c2.27,0,4.33.37,6.19,1.11s3.45,1.82,4.77,3.24c.46.5.88,1.05,1.26,1.62.6.89,1.12,1.87,1.54,2.94.09.21.18.42.26.64.73,2.05,1.09,4.39,1.09,7.01s-.36,4.98-1.09,7.04Z"/>
  <path class="cls-1" d="M95.13,41.03c-.14.25-.27.51-.39.78-.12.27-.23.55-.33.84-.19-.57-.42-1.1-.69-1.59l-15.16-26.13c-.14-.23-.29-.37-.44-.43-.15-.05-.35-.08-.6-.08h-1.86v37.57h2.36V19.97c0-.48-.03-.97-.08-1.49l15.19,26.29c.27.46.62.69,1.06.69h.42c.46,0,.81-.23,1.06-.69l14.23-25.27v-4.61s-.02.02-.02.03l-14.76,26.1Z"/>
  <rect class="cls-1" x="116.08" y="14.42" width="2.73" height="37.57"/>
  <path class="cls-1" d="M149.14,45.94c0,.5.03,1.01.08,1.54l-24.25-32.46v4.04l24.28,32.41c.25.35.57.53.98.53h1.3V14.42h-2.39v31.52Z"/>
  <path class="cls-1" d="M183.44,37.65c0,1.75-.26,3.39-.78,4.9-.52,1.51-1.28,2.83-2.27,3.94-.99,1.12-2.2,1.99-3.62,2.62-1.43.63-3.04.94-4.85.94s-3.42-.32-4.85-.96c-1.43-.64-2.63-1.51-3.61-2.63-.98-1.11-1.73-2.43-2.26-3.94-.52-1.51-.78-3.15-.78-4.9V14.42h-2.73v23.23c0,2.07.33,4.01.98,5.8.66,1.8,1.6,3.36,2.83,4.7,1.23,1.34,2.73,2.39,4.49,3.15,1.76.76,3.74,1.14,5.93,1.14s4.17-.38,5.93-1.14c1.76-.76,3.26-1.81,4.49-3.15,1.23-1.34,2.17-2.9,2.83-4.7.65-1.8.98-3.73.98-5.8V14.42h-2.71v23.23Z"/>
  <path class="cls-1" d="M214.62,37.59c-.54-1.04-1.26-1.91-2.14-2.62-.89-.71-1.89-1.3-3.02-1.77-1.13-.47-2.28-.9-3.47-1.29-1.19-.39-2.34-.78-3.47-1.18-1.13-.4-2.13-.89-3.02-1.47-.89-.58-1.6-1.29-2.14-2.12-.54-.83-.81-1.89-.81-3.16,0-.97.18-1.9.55-2.79.36-.89.9-1.66,1.6-2.34.7-.67,1.57-1.2,2.61-1.59,1.04-.39,2.24-.58,3.61-.58s2.52.17,3.45.5c.93.34,1.71.7,2.33,1.1.62.4,1.11.76,1.48,1.09s.66.49.89.49c.3,0,.53-.15.69-.45l.64-1.22c-1.28-1.27-2.69-2.22-4.24-2.84-1.55-.62-3.3-.93-5.25-.93-1.74,0-3.28.27-4.64.81-1.36.54-2.5,1.26-3.42,2.15-.92.89-1.62,1.92-2.1,3.09-.48,1.17-.72,2.38-.72,3.64,0,1.61.27,2.95.81,4.02.54,1.07,1.25,1.96,2.14,2.68.89.72,1.89,1.31,3.02,1.77,1.13.46,2.28.88,3.47,1.25,1.19.37,2.34.75,3.47,1.14,1.13.39,2.13.87,3.02,1.45.89.58,1.6,1.29,2.14,2.15.54.86.81,1.95.81,3.28,0,1.22-.21,2.37-.64,3.44-.43,1.07-1.04,2-1.85,2.77-.81.78-1.79,1.39-2.96,1.85-1.17.45-2.5.68-3.99.68-1.08,0-2.05-.11-2.9-.32-.85-.21-1.6-.47-2.26-.78-.66-.31-1.23-.65-1.73-1.01-.5-.36-.92-.7-1.28-1.01-.36-.31-.66-.57-.9-.78-.25-.21-.45-.32-.61-.32-.28,0-.53.13-.74.4l-.74,1.17c1.34,1.52,2.91,2.72,4.7,3.6,1.79.88,3.92,1.31,6.4,1.31,1.91,0,3.61-.3,5.1-.89s2.74-1.4,3.77-2.43,1.81-2.24,2.35-3.63c.54-1.39.81-2.87.81-4.45s-.27-2.83-.81-3.86Z"/>
  <path class="cls-1" d="M.87,4.05h1.65c.8,0,1.41-.17,1.83-.51.42-.34.63-.85.63-1.51,0-.41-.11-.78-.32-1.12-.21-.33-.5-.55-.86-.65-.36-.1-.81-.15-1.35-.15H0v6.56h.87v-2.62ZM.87.89h1.64c.38,0,.67.03.87.08s.37.18.5.39c.13.2.2.44.2.7,0,.39-.12.7-.36.9-.24.21-.64.31-1.19.31H.87V.89Z"/>
  <path class="cls-1" d="M9.88,6.79c.92,0,1.67-.31,2.26-.93.58-.62.88-1.44.88-2.46s-.29-1.84-.88-2.46c-.59-.62-1.34-.93-2.26-.93s-1.68.31-2.27.93c-.59.62-.88,1.44-.88,2.46s.29,1.84.88,2.46c.59.62,1.34.93,2.27.93ZM8.26,1.44c.42-.47.96-.7,1.62-.7s1.18.23,1.6.7c.42.47.63,1.12.63,1.95s-.21,1.49-.63,1.95c-.42.47-.96.7-1.61.7s-1.19-.23-1.61-.7c-.42-.47-.63-1.12-.63-1.95s.21-1.49.63-1.95Z"/>
  <polygon class="cls-1" points="17.11 6.68 18.69 .97 20.26 6.68 21.09 6.68 22.91 .11 21.99 .11 20.68 5.46 19.2 .11 18.16 .11 16.68 5.46 15.37 .11 14.46 .11 16.27 6.68 17.11 6.68"/>
  <polygon class="cls-1" points="29.55 5.9 25.52 5.9 25.52 3.68 29.14 3.68 29.14 2.9 25.52 2.9 25.52 .89 29.39 .89 29.39 .11 24.65 .11 24.65 6.68 29.55 6.68 29.55 5.9"/>
  <path class="cls-1" d="M35.45,3.7v-.02c.46-.09.82-.29,1.08-.6s.39-.68.39-1.14c0-.4-.1-.75-.3-1.07s-.47-.52-.79-.62-.74-.15-1.24-.15h-2.91v6.56h.87v-2.81h1.61c.33,0,.63.1.89.3.26.2.44.45.55.76l.62,1.75h.94l-.66-1.79c-.24-.64-.59-1.04-1.04-1.19ZM34.49,3.09h-1.94V.83h2.07c.94,0,1.41.37,1.41,1.12,0,.42-.12.71-.36.88-.24.17-.64.26-1.18.26Z"/>
  <polygon class="cls-1" points="44.12 5.9 40.09 5.9 40.09 3.68 43.71 3.68 43.71 2.9 40.09 2.9 40.09 .89 43.97 .89 43.97 .11 39.22 .11 39.22 6.68 44.12 6.68 44.12 5.9"/>
  <path class="cls-1" d="M51.68,3.36c0-2.16-1.11-3.25-3.34-3.25h-2.08v6.56h2.08c2.23,0,3.34-1.11,3.34-3.32ZM47.13,5.9V.89h1.2c.96,0,1.61.21,1.95.64.34.43.52,1.04.52,1.82s-.17,1.43-.52,1.87c-.35.44-1,.66-1.95.66h-1.2Z"/>
  <path class="cls-1" d="M61.43,6.18c.42-.33.63-.8.63-1.41,0-.37-.11-.69-.32-.98-.21-.29-.53-.49-.95-.59.63-.3.94-.77.94-1.41,0-.52-.2-.93-.6-1.23-.4-.3-.95-.45-1.65-.45h-2.34v6.56h2.46c.8,0,1.4-.16,1.82-.49ZM58.02.89h1.38c.55,0,.93.08,1.15.24.22.16.33.41.33.73,0,.36-.11.61-.34.77-.23.15-.58.23-1.06.23h-1.46V.89ZM58.02,5.9v-2.26h1.47c.63,0,1.07.09,1.31.27.24.18.36.47.36.86,0,.75-.52,1.13-1.56,1.13h-1.58Z"/>
  <polygon class="cls-1" points="66.51 3.13 64.55 .11 63.49 .11 66.07 3.9 66.07 6.68 66.94 6.68 66.94 3.9 69.52 .11 68.46 .11 66.51 3.13"/>
</svg>